<svg data-v-0dd9719b="" version="1.0" xmlns="http://www.w3.org/2000/svg" xmlns:xlink="http://www.w3.org/1999/xlink"
  width="100%" height="100%" viewBox="0 0 340.000000 250.000000" preserveAspectRatio="xMidYMid meet"
  color-interpolation-filters="sRGB" style="margin: auto;">
  <rect data-v-0dd9719b="" x="0" y="0" width="100%" height="100%" fill="#D9D9D9" fill-opacity="1" class="background">
  </rect>
  <g data-v-0dd9719b="" class="iconmbgsvg" transform="translate(113.75,43.70256042480469)">
    <g fill="#000000" hollow-target="textNormalTran">
      <g opacity="0.55">
        <g>
          <rect fill="#000000" fill-opacity="0" stroke-width="2" x="0" y="0" width="112.5" height="111.81235402276002"
            class="image-rect"></rect> <svg x="0" y="0" width="112.5" height="111.81235402276002"
            filtersec="colorsb9511686709" class="image-svg-svg primary" style="overflow: visible;"><svg
              xmlns="http://www.w3.org/2000/svg"
              viewBox="-0.00007348155486397445 -0.02729550004005432 21.200592041015625 21.07109260559082">
              <g>
                <g>
                  <path
                    d="M7.79 11.21c.37.74 2.88 1.39 4.7 1.36a18.13 18.13 0 0 1-6.19-.44 18.29 18.29 0 0 1-4.73-1.77.56.56 0 0 0-.89.43 1.44 1.44 0 0 0 .71 1.29 18.18 18.18 0 0 0 6.21 2.09 1.81 1.81 0 0 1 .86.33c.11.16-.29.22-.91.13A18 18 0 0 1 .88 12.3c-.44-.24-.83-.06-.88.41A1.5 1.5 0 0 0 .71 14a20.79 20.79 0 0 0 7.48 2.45 2.12 2.12 0 0 1 1 .32c.12.17-.4.31-1.19.26a18.14 18.14 0 0 1-6-1.77.59.59 0 0 0-.9.47A1.34 1.34 0 0 0 1.79 17 18.12 18.12 0 0 0 9 18.92a1.81 1.81 0 0 1 .87.29c.13.17-.47.31-1.3.28A18.24 18.24 0 0 1 5 18.81a.59.59 0 0 0-.8.5.92.92 0 0 0 .65.93 18.28 18.28 0 0 0 3.76.76c1.66.16 6.64.07 9.47-3.65a14.21 14.21 0 0 0 2.45-6.55l-11.71-.36c-.88-.02-1.37.1-1.03.77z"
                    fill="#3fcfdc"></path>
                  <path
                    d="M13.42 9.79c-.37-.74-2.89-1.39-4.7-1.37a18.06 18.06 0 0 1 6.18.44 17.9 17.9 0 0 1 4.74 1.78c.44.22.84 0 .88-.44a1.41 1.41 0 0 0-.71-1.29 18.25 18.25 0 0 0-6.2-2.08 1.65 1.65 0 0 1-.86-.34c-.11-.16.28-.21.91-.13a18.39 18.39 0 0 1 6.67 2.33.53.53 0 0 0 .87-.41A1.45 1.45 0 0 0 20.5 7 20.61 20.61 0 0 0 13 4.51a2.17 2.17 0 0 1-1-.31c-.13-.18.4-.32 1.19-.27a18.14 18.14 0 0 1 6 1.77.58.58 0 0 0 .9-.47A1.36 1.36 0 0 0 19.41 4a18.24 18.24 0 0 0-7.16-1.9 1.91 1.91 0 0 1-.88-.29c-.13-.17.48-.31 1.3-.28a17.52 17.52 0 0 1 3.59.69.6.6 0 0 0 .8-.5.93.93 0 0 0-.65-.94A19.09 19.09 0 0 0 12.6 0C10.94-.12 6 0 3.13 3.7a14.3 14.3 0 0 0-2.46 6.54l11.72.31c.88.02 1.37-.1 1.03-.76z"
                    fill="#3b2ba4"></path>
                </g>
              </g>
            </svg></svg>
          <!---->
        </g>
      </g>
      <g transform="translate(2.673004150390625,119.86746978759766)">
        <g fill-rule="" class="tp-name">
          <g transform="scale(0.8999999999999999)">
            <g>
              <g fill="#ff0050" data-gra-ignore="true" transform="translate(1.5, 1.5)">
                <path
                  d="M2.41 0L9.67 0 9.67-22.806 2.41-22.806ZM14.49 0L21.54 0 21.54-16.524 21.76-16.524 25.26-3.645 32.35-3.645 35.96-16.524 36.18-16.524 36.18 0 43.3 0 43.3-22.806 31.87-22.806 29.06-11.367 28.84-11.367 26.36-22.806 14.49-22.806ZM66.22 0L73.96 0 64.73-22.806 54.91-22.806 45.6 0 53.19 0 54.98-4.797000000000001 64.47-4.797000000000001ZM56.92-10.053L59.54-17.181 59.98-17.181 62.57-10.053ZM88.46 0.333C91.56 0.333 95.17-0.198 97.11-0.7200000000000001L97.11-13.895999999999999 86.71-13.895999999999999 86.71-8.442 90.43-8.442 90.43-5.13C89.88-5.094 89.81-5.094 88.82-5.094 84.3-5.094 83.57-6.633 83.57-11.403 83.57-15.966 84.92-17.613 89.15-17.613 91.09-17.613 93.42-17.316 95.47-16.695L95.47-22.374C93.97-22.806 90.98-23.13 88.53-23.13 80.54-23.13 75.53-20.205 75.53-11.403 75.53-1.836 80.32 0.333 88.46 0.333ZM108.97-5.6160000000000005L108.97-8.838000000000001 117.48-8.838000000000001 117.48-14.256 108.97-14.256 108.97-17.154 118.25-17.154 118.25-22.806 101.71-22.806 101.71 0 118.47 0 118.47-5.6160000000000005Z"
                  transform="translate(-2.4100000858306885, 23.1299991607666)"></path>
              </g>
              <g fill="#00faf0" data-gra-ignore="true" transform="translate(-1.5, -1.5)">
                <path
                  d="M2.41 0L9.67 0 9.67-22.806 2.41-22.806ZM14.49 0L21.54 0 21.54-16.524 21.76-16.524 25.26-3.645 32.35-3.645 35.96-16.524 36.18-16.524 36.18 0 43.3 0 43.3-22.806 31.87-22.806 29.06-11.367 28.84-11.367 26.36-22.806 14.49-22.806ZM66.22 0L73.96 0 64.73-22.806 54.91-22.806 45.6 0 53.19 0 54.98-4.797000000000001 64.47-4.797000000000001ZM56.92-10.053L59.54-17.181 59.98-17.181 62.57-10.053ZM88.46 0.333C91.56 0.333 95.17-0.198 97.11-0.7200000000000001L97.11-13.895999999999999 86.71-13.895999999999999 86.71-8.442 90.43-8.442 90.43-5.13C89.88-5.094 89.81-5.094 88.82-5.094 84.3-5.094 83.57-6.633 83.57-11.403 83.57-15.966 84.92-17.613 89.15-17.613 91.09-17.613 93.42-17.316 95.47-16.695L95.47-22.374C93.97-22.806 90.98-23.13 88.53-23.13 80.54-23.13 75.53-20.205 75.53-11.403 75.53-1.836 80.32 0.333 88.46 0.333ZM108.97-5.6160000000000005L108.97-8.838000000000001 117.48-8.838000000000001 117.48-14.256 108.97-14.256 108.97-17.154 118.25-17.154 118.25-22.806 101.71-22.806 101.71 0 118.47 0 118.47-5.6160000000000005Z"
                  transform="translate(-2.4100000858306885, 23.1299991607666)"></path>
              </g>
              <g>
                <path
                  d="M2.41 0L9.67 0 9.67-22.806 2.41-22.806ZM14.49 0L21.54 0 21.54-16.524 21.76-16.524 25.26-3.645 32.35-3.645 35.96-16.524 36.18-16.524 36.18 0 43.3 0 43.3-22.806 31.87-22.806 29.06-11.367 28.84-11.367 26.36-22.806 14.49-22.806ZM66.22 0L73.96 0 64.73-22.806 54.91-22.806 45.6 0 53.19 0 54.98-4.797000000000001 64.47-4.797000000000001ZM56.92-10.053L59.54-17.181 59.98-17.181 62.57-10.053ZM88.46 0.333C91.56 0.333 95.17-0.198 97.11-0.7200000000000001L97.11-13.895999999999999 86.71-13.895999999999999 86.71-8.442 90.43-8.442 90.43-5.13C89.88-5.094 89.81-5.094 88.82-5.094 84.3-5.094 83.57-6.633 83.57-11.403 83.57-15.966 84.92-17.613 89.15-17.613 91.09-17.613 93.42-17.316 95.47-16.695L95.47-22.374C93.97-22.806 90.98-23.13 88.53-23.13 80.54-23.13 75.53-20.205 75.53-11.403 75.53-1.836 80.32 0.333 88.46 0.333ZM108.97-5.6160000000000005L108.97-8.838000000000001 117.48-8.838000000000001 117.48-14.256 108.97-14.256 108.97-17.154 118.25-17.154 118.25-22.806 101.71-22.806 101.71 0 118.47 0 118.47-5.6160000000000005Z"
                  transform="translate(-2.4100000858306885, 23.1299991607666)"></path>
              </g>
            </g>
            <g transform="translate(0,29.46299934387207)">
              <g transform="scale(0.98024)">
                <g fill="#ff0050" data-gra-ignore="true" transform="translate(1.5, 1.5)">
                  <path
                    d="M6.65 0.234C12.29 0.234 14.05-1.683 14.05-4.941000000000001 14.05-7.920000000000001 13.5-9.225 8.96-10.287 6.7-10.809 6.3-10.971 6.3-11.727 6.3-12.51 6.96-12.860999999999999 8.64-12.860999999999999 10.09-12.860999999999999 12.37-12.555 13.13-12.294L13.13-16.056C12.11-16.362000000000002 10.69-16.641 8.41-16.641 4.05-16.641 1.26-15.417 1.26-11.538 1.26-8.631 2.21-7.497 6.2-6.6690000000000005 8.49-6.174 8.83-5.769 8.83-5.085000000000001 8.83-4.068 8.54-3.7350000000000003 6.36-3.7350000000000003 4.73-3.7350000000000003 2.6-4.041 1.39-4.347L1.39-0.30600000000000005C2.68-0.027 4.62 0.234 6.65 0.234ZM28.16-16.407L28.16-10.665 22.38-10.665 22.38-16.407 17.15-16.407 17.15 0 22.38 0 22.38-6.7410000000000005 28.16-6.7410000000000005 28.16 0 33.39 0 33.39-16.407ZM49.89 0L55.46 0 48.81-16.407 41.74-16.407 35.04 0 40.51 0 41.8-3.456 48.63-3.456ZM43.19-7.236L45.08-12.366 45.39-12.366 47.26-7.236ZM57.06-16.407L57.06 0 64.05 0C69.51 0 73-1.872 73-8.208 73-15.039000000000001 69.51-16.407 64.05-16.407ZM62.29-4.023L62.29-12.482999999999999 63.73-12.482999999999999C66.67-12.482999999999999 67.57-11.628 67.57-8.208 67.57-4.914 66.78-4.023 63.73-4.023ZM84.19 0.234C89.63 0.234 92.78-1.4400000000000002 92.78-8.208 92.78-14.940000000000001 89.63-16.641 84.19-16.641 78.78-16.641 75.6-14.940000000000001 75.6-8.208 75.6-1.4400000000000002 78.78 0.234 84.19 0.234ZM84.19-3.645C81.7-3.645 81.12-4.680000000000001 81.12-8.208 81.12-11.772 81.7-12.834 84.19-12.834 86.69-12.834 87.29-11.772 87.29-8.208 87.29-4.680000000000001 86.69-3.645 84.19-3.645ZM98.09 0L104.61 0 106.79-9.081 106.94-9.081 109.07 0 115.59 0 119.66-16.407 114.19-16.407 112.07-5.652 111.91-5.652 110.07-15.084000000000001 104.13-15.084000000000001 102.03-5.652 101.87-5.652 99.85-16.407 94.36-16.407Z"
                    transform="translate(-1.2599999904632568, 16.641000747680664)"></path>
                </g>
                <g fill="#00faf0" data-gra-ignore="true" transform="translate(-1.5, -1.5)">
                  <path
                    d="M6.65 0.234C12.29 0.234 14.05-1.683 14.05-4.941000000000001 14.05-7.920000000000001 13.5-9.225 8.96-10.287 6.7-10.809 6.3-10.971 6.3-11.727 6.3-12.51 6.96-12.860999999999999 8.64-12.860999999999999 10.09-12.860999999999999 12.37-12.555 13.13-12.294L13.13-16.056C12.11-16.362000000000002 10.69-16.641 8.41-16.641 4.05-16.641 1.26-15.417 1.26-11.538 1.26-8.631 2.21-7.497 6.2-6.6690000000000005 8.49-6.174 8.83-5.769 8.83-5.085000000000001 8.83-4.068 8.54-3.7350000000000003 6.36-3.7350000000000003 4.73-3.7350000000000003 2.6-4.041 1.39-4.347L1.39-0.30600000000000005C2.68-0.027 4.62 0.234 6.65 0.234ZM28.16-16.407L28.16-10.665 22.38-10.665 22.38-16.407 17.15-16.407 17.15 0 22.38 0 22.38-6.7410000000000005 28.16-6.7410000000000005 28.16 0 33.39 0 33.39-16.407ZM49.89 0L55.46 0 48.81-16.407 41.74-16.407 35.04 0 40.51 0 41.8-3.456 48.63-3.456ZM43.19-7.236L45.08-12.366 45.39-12.366 47.26-7.236ZM57.06-16.407L57.06 0 64.05 0C69.51 0 73-1.872 73-8.208 73-15.039000000000001 69.51-16.407 64.05-16.407ZM62.29-4.023L62.29-12.482999999999999 63.73-12.482999999999999C66.67-12.482999999999999 67.57-11.628 67.57-8.208 67.57-4.914 66.78-4.023 63.73-4.023ZM84.19 0.234C89.63 0.234 92.78-1.4400000000000002 92.78-8.208 92.78-14.940000000000001 89.63-16.641 84.19-16.641 78.78-16.641 75.6-14.940000000000001 75.6-8.208 75.6-1.4400000000000002 78.78 0.234 84.19 0.234ZM84.19-3.645C81.7-3.645 81.12-4.680000000000001 81.12-8.208 81.12-11.772 81.7-12.834 84.19-12.834 86.69-12.834 87.29-11.772 87.29-8.208 87.29-4.680000000000001 86.69-3.645 84.19-3.645ZM98.09 0L104.61 0 106.79-9.081 106.94-9.081 109.07 0 115.59 0 119.66-16.407 114.19-16.407 112.07-5.652 111.91-5.652 110.07-15.084000000000001 104.13-15.084000000000001 102.03-5.652 101.87-5.652 99.85-16.407 94.36-16.407Z"
                    transform="translate(-1.2599999904632568, 16.641000747680664)"></path>
                </g>
                <g fill="#D23E66">
                  <path
                    d="M6.65 0.234C12.29 0.234 14.05-1.683 14.05-4.941000000000001 14.05-7.920000000000001 13.5-9.225 8.96-10.287 6.7-10.809 6.3-10.971 6.3-11.727 6.3-12.51 6.96-12.860999999999999 8.64-12.860999999999999 10.09-12.860999999999999 12.37-12.555 13.13-12.294L13.13-16.056C12.11-16.362000000000002 10.69-16.641 8.41-16.641 4.05-16.641 1.26-15.417 1.26-11.538 1.26-8.631 2.21-7.497 6.2-6.6690000000000005 8.49-6.174 8.83-5.769 8.83-5.085000000000001 8.83-4.068 8.54-3.7350000000000003 6.36-3.7350000000000003 4.73-3.7350000000000003 2.6-4.041 1.39-4.347L1.39-0.30600000000000005C2.68-0.027 4.62 0.234 6.65 0.234ZM28.16-16.407L28.16-10.665 22.38-10.665 22.38-16.407 17.15-16.407 17.15 0 22.38 0 22.38-6.7410000000000005 28.16-6.7410000000000005 28.16 0 33.39 0 33.39-16.407ZM49.89 0L55.46 0 48.81-16.407 41.74-16.407 35.04 0 40.51 0 41.8-3.456 48.63-3.456ZM43.19-7.236L45.08-12.366 45.39-12.366 47.26-7.236ZM57.06-16.407L57.06 0 64.05 0C69.51 0 73-1.872 73-8.208 73-15.039000000000001 69.51-16.407 64.05-16.407ZM62.29-4.023L62.29-12.482999999999999 63.73-12.482999999999999C66.67-12.482999999999999 67.57-11.628 67.57-8.208 67.57-4.914 66.78-4.023 63.73-4.023ZM84.19 0.234C89.63 0.234 92.78-1.4400000000000002 92.78-8.208 92.78-14.940000000000001 89.63-16.641 84.19-16.641 78.78-16.641 75.6-14.940000000000001 75.6-8.208 75.6-1.4400000000000002 78.78 0.234 84.19 0.234ZM84.19-3.645C81.7-3.645 81.12-4.680000000000001 81.12-8.208 81.12-11.772 81.7-12.834 84.19-12.834 86.69-12.834 87.29-11.772 87.29-8.208 87.29-4.680000000000001 86.69-3.645 84.19-3.645ZM98.09 0L104.61 0 106.79-9.081 106.94-9.081 109.07 0 115.59 0 119.66-16.407 114.19-16.407 112.07-5.652 111.91-5.652 110.07-15.084000000000001 104.13-15.084000000000001 102.03-5.652 101.87-5.652 99.85-16.407 94.36-16.407Z"
                    transform="translate(-1.2599999904632568, 16.641000747680664)"></path>
                </g>
              </g>
            </g>
          </g>
        </g>
        <!---->
      </g>
    </g>
  </g>
  <defs v-gra="od"></defs>
</svg>