<svg version="1.0" xmlns="http://www.w3.org/2000/svg" xmlns:xlink="http://www.w3.org/1999/xlink"
  viewBox="0 0 340.000000 250.000000">
  <g data-v-0dd9719b="" class="iconmbgsvg" transform="translate(113.75,69.09382247924805)">
    <g fill="#000000" hollow-target="textNormalTran">
      <g>
        <g>
          <rect fill="#000000" fill-opacity="0" stroke-width="2" x="0" y="0" width="112.5" height="111.81235402276002"
            class="image-rect"></rect> <svg x="0" y="0" width="112.5" height="111.81235402276002"
            filtersec="colorsb9975095123" class="image-svg-svg primary" style="overflow: visible;"><svg
              xmlns="http://www.w3.org/2000/svg"
              viewBox="-0.00007348155486397445 -0.02729550004005432 21.200592041015625 21.07109260559082">
              <g>
                <g>
                  <path
                    d="M7.79 11.21c.37.74 2.88 1.39 4.7 1.36a18.13 18.13 0 0 1-6.19-.44 18.29 18.29 0 0 1-4.73-1.77.56.56 0 0 0-.89.43 1.44 1.44 0 0 0 .71 1.29 18.18 18.18 0 0 0 6.21 2.09 1.81 1.81 0 0 1 .86.33c.11.16-.29.22-.91.13A18 18 0 0 1 .88 12.3c-.44-.24-.83-.06-.88.41A1.5 1.5 0 0 0 .71 14a20.79 20.79 0 0 0 7.48 2.45 2.12 2.12 0 0 1 1 .32c.12.17-.4.31-1.19.26a18.14 18.14 0 0 1-6-1.77.59.59 0 0 0-.9.47A1.34 1.34 0 0 0 1.79 17 18.12 18.12 0 0 0 9 18.92a1.81 1.81 0 0 1 .87.29c.13.17-.47.31-1.3.28A18.24 18.24 0 0 1 5 18.81a.59.59 0 0 0-.8.5.92.92 0 0 0 .65.93 18.28 18.28 0 0 0 3.76.76c1.66.16 6.64.07 9.47-3.65a14.21 14.21 0 0 0 2.45-6.55l-11.71-.36c-.88-.02-1.37.1-1.03.77z"
                    fill="#3fcfdc"></path>
                  <path
                    d="M13.42 9.79c-.37-.74-2.89-1.39-4.7-1.37a18.06 18.06 0 0 1 6.18.44 17.9 17.9 0 0 1 4.74 1.78c.44.22.84 0 .88-.44a1.41 1.41 0 0 0-.71-1.29 18.25 18.25 0 0 0-6.2-2.08 1.65 1.65 0 0 1-.86-.34c-.11-.16.28-.21.91-.13a18.39 18.39 0 0 1 6.67 2.33.53.53 0 0 0 .87-.41A1.45 1.45 0 0 0 20.5 7 20.61 20.61 0 0 0 13 4.51a2.17 2.17 0 0 1-1-.31c-.13-.18.4-.32 1.19-.27a18.14 18.14 0 0 1 6 1.77.58.58 0 0 0 .9-.47A1.36 1.36 0 0 0 19.41 4a18.24 18.24 0 0 0-7.16-1.9 1.91 1.91 0 0 1-.88-.29c-.13-.17.48-.31 1.3-.28a17.52 17.52 0 0 1 3.59.69.6.6 0 0 0 .8-.5.93.93 0 0 0-.65-.94A19.09 19.09 0 0 0 12.6 0C10.94-.12 6 0 3.13 3.7a14.3 14.3 0 0 0-2.46 6.54l11.72.31c.88.02 1.37-.1 1.03-.76z"
                    fill="#3b2ba4"></path>
                </g>
              </g>
            </svg></svg>
        </g>
      </g>
      <g transform="translate(56.25,55.90617752075195)">
        <g data-gra="path-name" fill-rule="" class="tp-name">
          <g transform="scale(1)">
            <g>
              <path d="" transform="translate(0, 0)"></path>
            </g>
          </g>
        </g>
      </g>
    </g>
  </g>
  <defs v-gra="od"></defs>
</svg>